<svg width="35" height="35" viewBox="0 0 35 35" fill="none" xmlns="http://www.w3.org/2000/svg">
<path d="M28.5114 29.575C26.9189 30.9604 25.1802 30.7417 23.5064 30.0854C21.7352 29.4146 20.1102 29.3854 18.2414 30.0854C15.9014 30.9896 14.6664 30.7271 13.2689 29.575C5.33893 22.2396 6.50893 11.0687 15.5114 10.6604C17.7052 10.7625 19.2327 11.7396 20.5164 11.8271C22.4339 11.4771 24.2702 10.4708 26.3177 10.6021C28.7714 10.7771 30.6239 11.6521 31.8427 13.2271C26.7727 15.9542 27.9752 21.9479 32.6227 23.625C31.6964 25.8125 30.4939 27.9854 28.4952 29.5896L28.5114 29.575ZM20.3539 10.5729C20.1102 7.32083 23.0514 4.6375 26.4314 4.375C26.9027 8.1375 22.6289 10.9375 20.3539 10.5729Z" fill="white"/>
<path d="M25.0977 28.8947C23.7015 30.2482 22.1769 30.0345 20.7094 29.3934C19.1564 28.738 17.7316 28.7095 16.0931 29.3934C14.0414 30.2767 12.9586 30.0203 11.7333 28.8947C4.78032 21.728 5.80617 10.8142 13.6995 10.4152C15.6229 10.515 16.9622 11.4696 18.0878 11.5551C19.7691 11.2131 21.3791 10.23 23.1743 10.3582C25.3257 10.5292 26.95 11.3841 28.0186 12.9229C23.5732 15.5872 24.6276 21.4431 28.7025 23.0816C27.8903 25.2187 26.836 27.3417 25.0835 28.9089L25.0977 28.8947ZM17.9453 10.3297C17.7316 7.15248 20.3105 4.53088 23.274 4.27441C23.6872 7.95036 19.94 10.6859 17.9453 10.3297Z" fill="#F1F1F1"/>
</svg>
