<svg width="25" height="24" viewBox="0 0 25 24" fill="none" xmlns="http://www.w3.org/2000/svg">
<path d="M19.0721 10.1701C19.0726 10.3195 19.0396 10.4671 18.9756 10.6021C18.9115 10.737 18.8181 10.856 18.7021 10.9501L12.7021 15.7801C12.5231 15.9272 12.2987 16.0076 12.0671 16.0076C11.8354 16.0076 11.611 15.9272 11.4321 15.7801L5.43205 10.7801C5.22784 10.6103 5.09941 10.3664 5.07503 10.102C5.05065 9.83758 5.13231 9.5743 5.30205 9.37008C5.47179 9.16586 5.7157 9.03744 5.98013 9.01306C6.24456 8.98868 6.50784 9.07034 6.71205 9.24008L12.0721 13.7101L17.4321 9.39008C17.5788 9.2678 17.7576 9.19012 17.9471 9.16624C18.1367 9.14236 18.3291 9.17328 18.5016 9.25533C18.6742 9.33739 18.8196 9.46715 18.9207 9.62926C19.0217 9.79137 19.0743 9.97905 19.0721 10.1701Z" fill="#FAFAFA" fill-opacity="0.5"/>
</svg>
