<svg width="20" height="21" viewBox="0 0 20 21" fill="none" xmlns="http://www.w3.org/2000/svg">
<path d="M16.6666 3.41666H4.58331C4.33331 3.41666 4.08331 3.49999 3.91664 3.74999L2.66664 5.41666C2.24998 5.99999 2.66664 6.74999 3.33331 6.74999H15.4166C15.6666 6.74999 15.9166 6.66666 16.0833 6.41666L17.3333 4.74999C17.75 4.16666 17.3333 3.41666 16.6666 3.41666Z" fill="#F1F1F1"/>
<path d="M3.33331 8.83334H15.4166C15.6666 8.83334 15.9166 8.91668 16.0833 9.16668L17.3333 10.8333C17.75 11.4167 17.3333 12.1667 16.6666 12.1667H4.58331C4.33331 12.1667 4.08331 12.0833 3.91664 11.8333L2.66664 10.1667C2.24998 9.58334 2.66664 8.83334 3.33331 8.83334Z" fill="#F1F1F1"/>
<path d="M16.6666 14.25H4.58331C4.33331 14.25 4.08331 14.3333 3.91664 14.5833L2.66664 16.25C2.24998 16.8333 2.66664 17.5833 3.33331 17.5833H15.4166C15.6666 17.5833 15.9166 17.5 16.0833 17.25L17.3333 15.5833C17.75 15 17.3333 14.25 16.6666 14.25Z" fill="#F1F1F1"/>
</svg>
