<svg width="132" height="30" viewBox="0 0 132 30" fill="none" xmlns="http://www.w3.org/2000/svg">
<path d="M46.2701 22.593H42.8585V21.0104C42.4814 21.5523 41.976 21.9924 41.3874 22.2914C40.7989 22.5904 40.1454 22.7391 39.4854 22.7241C36.9104 22.7241 35.1763 20.8657 35.1763 17.7504V10.9431H38.5675V17.2733C38.5675 18.8559 39.4266 19.7376 40.7017 19.7376C42.0198 19.7376 42.8563 18.8604 42.8563 17.2733V10.9431H46.2678L46.2701 22.593ZM43.105 5.25488V8.03341L38.2872 10.1586V7.69429L43.105 5.25488Z" fill="#F1F1F1"/>
<path d="M52.9555 10.7758C53.6304 10.7605 54.2983 10.9151 54.8979 11.2252C55.4975 11.5353 56.0097 11.991 56.3874 12.5505V7.14038H59.7989V22.593H56.3874V20.9222C55.7679 21.9871 54.5923 22.7603 52.9555 22.7603C50.2221 22.7603 48.0473 20.4204 48.0473 16.7443C48.0473 13.0682 50.2199 10.7758 52.9555 10.7758ZM53.9525 13.8889C52.6751 13.8889 51.5176 14.8927 51.5176 16.7511C51.5176 18.6094 52.6751 19.6539 53.9525 19.6539C55.2298 19.6539 56.3874 18.6298 56.3874 16.7714C56.3874 14.913 55.2502 13.8889 53.9525 13.8889Z" fill="#F1F1F1"/>
<path d="M73.268 22.593H69.8542V21.0104C69.4772 21.5524 68.9718 21.9926 68.3832 22.2917C67.7946 22.5907 67.1411 22.7393 66.4811 22.7241C63.906 22.7241 62.172 20.8657 62.172 17.7504V10.9431H65.5632V17.2733C65.5632 18.8559 66.4223 19.7376 67.6974 19.7376C69.0154 19.7376 69.8519 18.8604 69.8519 17.2733V10.9431H73.2635L73.268 22.593ZM70.1029 5.25488V8.03341L65.2851 10.1586V7.69429L70.1029 5.25488Z" fill="#F1F1F1"/>
<path d="M83.4056 16.2628C83.4056 14.6803 82.5668 13.7985 81.2714 13.7985C79.9759 13.7985 79.1327 14.6803 79.1327 16.2628V22.5931H75.7188V10.9431H79.1327V12.4895C79.5152 11.9571 80.0221 11.5263 80.6092 11.2347C81.1964 10.9431 81.8459 10.7996 82.5013 10.8165C85.0763 10.8165 86.7968 12.6546 86.7968 15.7903V22.5931H83.4056V16.2628Z" fill="#F1F1F1"/>
<path d="M89.1712 7.14038H92.5827V15.684L95.9558 10.9363H100.165L95.5353 16.785L100.206 22.593H95.9762L92.585 17.7051V22.593H89.1712V7.14038Z" fill="#F1F1F1"/>
<path d="M112.498 22.593H109.086V21.0104C108.709 21.5524 108.204 21.9926 107.615 22.2917C107.027 22.5907 106.373 22.7393 105.713 22.7241C103.138 22.7241 101.402 20.8657 101.402 17.7504V10.9431H104.793V17.2733C104.793 18.8559 105.652 19.7376 106.927 19.7376C108.245 19.7376 109.082 18.8604 109.082 17.2733V10.9431H112.493L112.498 22.593ZM109.333 5.25488V8.03341L104.515 10.1586V7.69429L109.333 5.25488Z" fill="#F1F1F1"/>
<path d="M114.951 7.14038H118.362V22.593H114.951V7.14038Z" fill="#F1F1F1"/>
<path d="M131.832 22.593H128.421V21.0104C128.044 21.5524 127.539 21.9926 126.95 22.2917C126.361 22.5907 125.708 22.7393 125.048 22.7241C122.473 22.7241 120.736 20.8657 120.736 17.7504V10.9431H124.128V17.2733C124.128 18.8559 124.987 19.7376 126.262 19.7376C127.58 19.7376 128.416 18.8604 128.416 17.2733V10.9431H131.832V22.593ZM128.667 5.25488V8.03341L123.852 10.1586V7.69429L128.667 5.25488Z" fill="#F1F1F1"/>
<path d="M21.4052 2.71154C18.9798 1.31166 16.1938 0.6624 13.3994 0.845852C10.6051 1.0293 7.92788 2.03723 5.70634 3.74218C3.48481 5.44713 1.81871 7.77254 0.918739 10.4244C0.0187658 13.0762 -0.0746711 15.9353 0.650244 18.6402C1.37516 21.3451 2.88587 23.7744 4.99135 25.6207C7.09683 27.4671 9.70252 28.6476 12.4789 29.0132C15.2554 29.3787 18.0778 28.9127 20.5894 27.6741C23.101 26.4356 25.1889 24.4801 26.5892 22.055C27.5191 20.4445 28.1226 18.6667 28.3653 16.8229C28.608 14.9792 28.4852 13.1057 28.0038 11.3095C27.5224 9.51325 26.6919 7.82942 25.5597 6.35418C24.4275 4.87893 23.0158 3.64115 21.4052 2.71154ZM4.33158 14.2281C2.92762 14.002 2.74901 11.8181 4.14845 9.38318C5.54789 6.94829 7.67305 5.78397 8.71302 6.64082C9.60377 7.37558 9.37769 9.38995 8.31511 11.228C7.25253 13.066 5.53432 14.4157 4.33158 14.2281ZM15.7599 23.6466C12.1427 22.7423 10.2662 18.3179 12.7259 14.0563C15.1857 9.79464 19.947 9.20006 22.5491 11.8882C24.5454 13.9523 24.6268 17.4294 23.1121 20.0519C21.5973 22.6744 18.5453 24.3474 15.7599 23.6466Z" fill="#FEA700"/>
</svg>
